# xmcd
# 
# Track frame offsets:
#     150
#     18395
#     38797
#     56375
#     80152
#     101137
#     121340
#     142665
#     161565
#     187152
#     205165
# 
# Disc length: 2992
# 
# Revision: 1
# Processed by: cddbd v1.5.2PL0 Copyright (c) Steve Scherf et al.
# Submitted via: BonkEnc v1.0.8
# 
DISCID=920bae0b
DTITLE=川崎燎 - My Reverie
DYEAR=1992
DGENRE=Contemporary Jazz
TTITLE0=Israel
TTITLE1=Nardis
TTITLE2=Reverie
TTITLE3=What are you doing the Rest of Your Life
TTITLE4=Waltz for DODO
TTITLE5=Pavane pour Uneinfante Defunte
TTITLE6=I loves you Porgy
TTITLE7=My Man's Gone Now
TTITLE8=Sweet Tears
TTITLE9=How my Hearts Sings
TTITLE10=Autumn Leaves
EXTD=
EXTT0=
EXTT1=
EXTT2=
EXTT3=
EXTT4=
EXTT5=
EXTT6=
EXTT7=
EXTT8=
EXTT9=
EXTT10=
PLAYORDER=
